<svg xmlns="http://www.w3.org/2000/svg" viewBox="0 0 64 64" fill="none">
  <defs>
    <linearGradient id="g" x1="10" y1="54" x2="54" y2="10" gradientUnits="userSpaceOnUse">
      <stop stop-color="#0ea5e9"/>
      <stop offset="1" stop-color="#22c55e"/>
    </linearGradient>
  </defs>
  <rect x="6" y="6" width="52" height="52" rx="12" fill="url(#g)" opacity="0.12"/>
  <path d="M18 32c0-7.732 6.268-14 14-14s14 6.268 14 14-6.268 14-14 14-14-6.268-14-14Z" stroke="#0f172a" stroke-width="2.5" stroke-linejoin="round"/>
  <path d="M32 18v6m0 16v6m14-14h-6M24 32h-6m18.5-10.5L32 26m-8.5 13L32 38m0-6-8.5-8.5m0 0L16 24m0 0v4.5" stroke="#0ea5e9" stroke-width="2.5" stroke-linecap="round" stroke-linejoin="round"/>
  <path d="M32 28a4 4 0 1 1 0 8 4 4 0 0 1 0-8Z" fill="#0ea5e9"/>
</svg>
